<?xml version="1.0" encoding="utf-8"?>
<!-- Generator: Adobe Illustrator 19.0.0, SVG Export Plug-In . SVG Version: 6.00 Build 0)  -->
<svg version="1.1" id="Layer_1" xmlns="http://www.w3.org/2000/svg" xmlns:xlink="http://www.w3.org/1999/xlink" x="0px" y="0px"
	 viewBox="0 0 32 32" style="enable-background:new 0 0 32 32;" xml:space="preserve">
<style type="text/css">
	.st0{fill:#FFFFFF;}
</style>
<g id="XMLID_12_">
	<g id="XMLID_23_">
		<path id="XMLID_24_" class="st0" d="M21.4,4l-3.1,0c-3.5,0-5.7,2.3-5.7,5.9v2.7H9.5c-0.3,0-0.5,0.2-0.5,0.5v3.9
			c0,0.3,0.2,0.5,0.5,0.5h3.1v9.9c0,0.3,0.2,0.5,0.5,0.5h4.1c0.3,0,0.5-0.2,0.5-0.5v-9.9h3.6c0.3,0,0.5-0.2,0.5-0.5l0-3.9
			c0-0.1-0.1-0.3-0.1-0.3c-0.1-0.1-0.2-0.1-0.3-0.1h-3.6v-2.3c0-1.1,0.3-1.7,1.7-1.7l2.1,0c0.3,0,0.5-0.2,0.5-0.5V4.5
			C21.9,4.3,21.7,4,21.4,4L21.4,4z M21.4,4"/>
	</g>
</g>
</svg>
