<?xml version="1.0" encoding="utf-8"?>
<!-- Generator: Adobe Illustrator 19.0.0, SVG Export Plug-In . SVG Version: 6.00 Build 0)  -->
<svg version="1.1" id="Layer_1" xmlns="http://www.w3.org/2000/svg" xmlns:xlink="http://www.w3.org/1999/xlink" x="0px" y="0px"
	 viewBox="0 0 32 32" style="enable-background:new 0 0 32 32;" xml:space="preserve">
<style type="text/css">
	.st0{fill:#FFFFFF;}
</style>
<g id="XMLID_35_">
	<path id="XMLID_38_" class="st0" d="M10.4,6.7c0.9-0.1,1.8,0.3,2.3,1c0.6,0.8,0.7,2,0.1,2.9c-0.5,0.8-1.6,1.2-2.5,1.1
		c-1.2-0.2-2.1-1.4-2-2.6C8.3,7.8,9.3,6.8,10.4,6.7z"/>
	<path id="XMLID_37_" class="st0" d="M20.9,6.7c1.3-0.2,2.7,0.8,2.8,2.2c0.1,1-0.5,2.1-1.4,2.5c-0.9,0.4-2.1,0.2-2.8-0.5
		c-0.7-0.7-1-1.8-0.6-2.7C19.3,7.4,20.1,6.8,20.9,6.7z"/>
	<path id="XMLID_36_" class="st0" d="M5.5,16.7c0.3-0.5,0.9-0.8,1.5-0.8c0.7,0.1,1.3,0.7,1.3,1.4c0,0.6-0.3,1-0.6,1.5
		c1.9,1.9,4.4,3.2,7.1,3.4c3.4,0.4,7-0.9,9.3-3.4c-0.3-0.5-0.7-1-0.6-1.6c0.1-0.9,1-1.5,1.9-1.2c0.4,0.1,0.8,0.4,1,0.8
		c1,1.7,2,3.5,3,5.2c0.3,0.5,0.2,1.3-0.2,1.7c-0.6,0.7-1.8,0.7-2.3-0.1c-0.5-0.7-0.8-1.4-1.3-2.2c-2.5,2.3-5.9,3.7-9.4,3.8
		c-3.7,0.1-7.5-1.3-10.2-3.8c-0.4,0.7-0.8,1.4-1.2,2.1c-0.4,0.7-1.3,0.9-2,0.5c-0.7-0.4-1-1.4-0.6-2C3.5,20.3,4.5,18.5,5.5,16.7z"/>
</g>
</svg>
