<?xml version="1.0" encoding="utf-8"?>
<!-- Generator: Adobe Illustrator 19.0.0, SVG Export Plug-In . SVG Version: 6.00 Build 0)  -->
<svg version="1.1" id="Layer_1" xmlns="http://www.w3.org/2000/svg" xmlns:xlink="http://www.w3.org/1999/xlink" x="0px" y="0px"
	 viewBox="0 0 32 32" style="enable-background:new 0 0 32 32;" xml:space="preserve">
<style type="text/css">
	.st0{fill:#FFFFFF;}
</style>
<path id="XMLID_27_" class="st0" d="M22.5,16c-0.9,0-2.8,1.9-6.5,1.9S10.4,16,9.5,16c-1,0-1.9,0.8-1.9,1.9c0,0.9,0.5,1.4,0.9,1.6
	c1.1,0.6,4.6,2.1,4.6,2.1l-3.9,5c0,0-0.7,0.9-0.7,1.4c0,1,0.8,1.9,1.9,1.9c0.9,0,1.4-0.6,1.4-0.6s4.2-5,4.2-4.9c0,0,4.2,4.9,4.2,4.9
	s0.4,0.6,1.4,0.6c1,0,1.9-0.8,1.9-1.9c0-0.6-0.7-1.4-0.7-1.4l-3.9-5c0,0,3.5-1.5,4.6-2.1c0.4-0.2,0.9-0.7,0.9-1.6
	C24.3,16.8,23.5,16,22.5,16z M16,2.1c-3.6,0-6.5,2.9-6.5,6.5s2.9,6.5,6.5,6.5c3.6,0,6.5-2.9,6.5-6.5S19.6,2.1,16,2.1z M16,11.8
	c-1.8,0-3.2-1.4-3.2-3.2c0-1.8,1.5-3.2,3.2-3.2c1.8,0,3.2,1.5,3.2,3.2C19.2,10.4,17.8,11.8,16,11.8z"/>
</svg>
