<?xml version="1.0" encoding="utf-8"?>
<!-- Generator: Adobe Illustrator 19.0.0, SVG Export Plug-In . SVG Version: 6.00 Build 0)  -->
<svg version="1.1" id="Layer_1" xmlns="http://www.w3.org/2000/svg" xmlns:xlink="http://www.w3.org/1999/xlink" x="0px" y="0px"
	 viewBox="0 0 32 32" style="enable-background:new 0 0 32 32;" xml:space="preserve">
<style type="text/css">
	.st0{fill:#FFFFFF;}
</style>
<g id="XMLID_13_">
	<path id="XMLID_14_" class="st0" d="M28.3,8.3c-0.9,0.4-1.9,0.7-2.9,0.8c1-0.6,1.8-1.6,2.2-2.8c-1,0.6-2.1,1-3.2,1.2
		c-0.9-1-2.2-1.6-3.7-1.6C18,6,15.7,8.2,15.7,11c0,0.4,0,0.8,0.1,1.2C11.6,12,7.9,10,5.4,6.9C4.9,7.6,4.7,8.5,4.7,9.4
		c0,1.8,0.9,3.3,2.3,4.2c-0.8,0-1.6-0.3-2.3-0.6v0.1c0,2.5,1.7,4.5,4.1,5c-0.4,0.1-0.9,0.2-1.3,0.2c-0.3,0-0.6,0-1-0.1
		c0.6,2,2.5,3.5,4.7,3.5c-1.7,1.4-3.9,2.2-6.3,2.2c-0.4,0-0.8,0-1.2-0.1c2.2,1.4,4.9,2.3,7.8,2.3c9.3,0,14.4-7.7,14.4-14.4l0-0.7
		C26.8,10.2,27.7,9.4,28.3,8.3L28.3,8.3z M28.3,8.3"/>
</g>
</svg>
