<?xml version="1.0" encoding="utf-8"?>
<!-- Generator: Adobe Illustrator 19.0.0, SVG Export Plug-In . SVG Version: 6.00 Build 0)  -->
<svg version="1.1" id="Layer_1" xmlns="http://www.w3.org/2000/svg" xmlns:xlink="http://www.w3.org/1999/xlink" x="0px" y="0px"
	 viewBox="0 0 32 32" style="enable-background:new 0 0 32 32;" xml:space="preserve">
<style type="text/css">
	.st0{fill:#FFFFFF;}
</style>
<g id="XMLID_30_">
	<path id="XMLID_31_" class="st0" d="M7.9,26.4c0-6.9,0-13.9,0-20.8c3.3,0,6.6,0,9.8,0c1.3,0,2.6,0.2,3.7,0.8
		c0.8,0.4,1.4,1.1,1.9,1.8c0.5,0.7,0.7,1.5,0.7,2.3c0,1.2-0.3,2.4-1.1,3.2c-0.6,0.7-1.6,1-2.5,1.2c1.4,0.3,2.7,1,3.7,2.1
		c0.7,0.9,1.1,2,1.1,3.2c0,1.8-0.9,3.5-2.1,4.6c-0.8,0.8-1.9,1.2-3,1.4c-1.1,0.2-2.3,0.2-3.4,0.2C13.7,26.4,10.8,26.4,7.9,26.4z
		 M13.3,9.7c0,1.3,0,2.6,0,3.9c0.9,0,1.7,0,2.6,0c0.5,0,1-0.1,1.4-0.4c0.4-0.3,0.5-0.8,0.6-1.2c0.1-0.6,0.1-1.2-0.3-1.7
		c-0.4-0.4-1-0.5-1.6-0.6C15,9.7,14.2,9.7,13.3,9.7z M13.2,18c0,1.3,0,2.5,0,3.8c1.1,0,2.2,0,3.3,0c0.5,0,1.1-0.1,1.5-0.4
		c0.4-0.3,0.7-0.8,0.7-1.3c0-0.6-0.2-1.2-0.7-1.6C17.6,18.1,17,18,16.4,18C15.3,18,14.3,18,13.2,18z"/>
</g>
</svg>
