<?xml version="1.0" encoding="utf-8"?>
<!-- Generator: Adobe Illustrator 19.0.0, SVG Export Plug-In . SVG Version: 6.00 Build 0)  -->
<svg version="1.1" id="Layer_1" xmlns="http://www.w3.org/2000/svg" xmlns:xlink="http://www.w3.org/1999/xlink" x="0px" y="0px"
	 viewBox="-260 357 91 83" style="enable-background:new -260 357 91 83;" xml:space="preserve">
<style type="text/css">
	.st0{fill:url(#SVGID_1_);}
</style>
<linearGradient id="SVGID_1_" gradientUnits="userSpaceOnUse" x1="-214.248" y1="356.009" x2="-214.248" y2="438.993" gradientTransform="matrix(1 0 0 -1 0 796)">
	<stop  offset="0" style="stop-color:#13AC4E"/>
	<stop  offset="1" style="stop-color:#B4D433"/>
</linearGradient>
<path class="st0" d="M-221.9,390.7c2.1,0,3.8-1.7,3.8-3.9c0-2.1-1.7-3.9-3.8-3.9s-3.8,1.7-3.8,3.9C-225.7,389-224,390.7-221.9,390.7
	z M-206.6,390.7c2.1,0,3.8-1.7,3.8-3.9c0-2.1-1.7-3.9-3.8-3.9c-2.1,0-3.8,1.7-3.8,3.9C-210.4,389-208.7,390.7-206.6,390.7z
	 M-229.2,416c2,0.3,6.5,0.7,8.6,0.7c18.3,0,30.6-13.9,30.6-30.1c0-16.3-15.3-29.5-30.6-29.5c-18.3,0-33.1,13.2-33.1,29.5
	c0,9.4,3.5,17.5,10.2,23.2v14.7L-229.2,416z M-248.6,386.8c0-13.6,12.1-24.6,28-24.6c12.7,0,25.5,11,25.5,24.6
	c0,13.6-10,24.6-25.5,24.6c-2.3,0-7-0.3-9.1-0.7l-8.7,5.9v-9.2C-244.7,402.3-248.6,395.5-248.6,386.8z M-185.1,380.7
	c0,0.7,0.1,1.5,0.1,2.2c0,1.6-0.2,3.3-0.4,4.9c3.4,4.1,5.5,9.1,5.5,14.6c0,8.6-5.1,16.2-12.7,20.6v9.2l-8.7-5.9
	c-2.1,0.4-4.3,0.7-6.6,0.7c-6.6,0-10.1-2-14.9-5.4c-1.4,0.1-2.8,0.2-4.2,0.2c-1,0-2-0.1-3-0.1c6.1,6,12.3,9.9,22.1,9.9
	c2.1,0,4.1-0.2,6.1-0.5l14.3,8.9v-14.7c7.7-5.4,12.7-13.8,12.7-23.2C-174.8,393.6-178.7,386.1-185.1,380.7z M-237.2,390.7
	c2.1,0,3.8-1.7,3.8-3.9c0-2.1-1.7-3.9-3.8-3.9c-2.1,0-3.8,1.7-3.8,3.9C-241,389-239.3,390.7-237.2,390.7z"/>
</svg>
