<?xml version="1.0" encoding="utf-8"?>
<!-- Generator: Adobe Illustrator 19.0.0, SVG Export Plug-In . SVG Version: 6.00 Build 0)  -->
<svg version="1.1" id="Layer_1" xmlns="http://www.w3.org/2000/svg" xmlns:xlink="http://www.w3.org/1999/xlink" x="0px" y="0px"
	 viewBox="-260 357 91 83" style="enable-background:new -260 357 91 83;" xml:space="preserve">
<style type="text/css">
	.st0{fill:url(#SVGID_1_);}
</style>
<linearGradient id="SVGID_1_" gradientUnits="userSpaceOnUse" x1="-215.6642" y1="360.008" x2="-215.6642" y2="433.994" gradientTransform="matrix(1 0 0 -1 0 796)">
	<stop  offset="0" style="stop-color:#13AC4E"/>
	<stop  offset="1" style="stop-color:#B4D433"/>
</linearGradient>
<path class="st0" d="M-230.4,381.7l-6.1-19.7h-15.8c-1.3,0-2.4,1.1-2.4,2.5c0,1.4,1.1,2.5,2.4,2.5h12.2l4.9,14.8h0l4.9,29.6
	c0,5.4,4.4,9.9,9.8,9.9h26.8c5.4,0,9.8-4.4,9.8-9.9l7.3-29.6H-230.4z M-188.8,411.3c0,2.7-2.2,4.9-4.9,4.9h-26.8
	c-2.7,0-4.9-2.2-4.9-4.9l-4.1-24.7h46.7L-188.8,411.3z M-220.5,426.1c-2.7,0-4.9,2.2-4.9,4.9c0,2.7,2.2,4.9,4.9,4.9s4.9-2.2,4.9-4.9
	C-215.7,428.3-217.8,426.1-220.5,426.1z M-196.2,426.1c-2.7,0-4.9,2.2-4.9,4.9c0,2.7,2.2,4.9,4.9,4.9s4.9-2.2,4.9-4.9
	C-191.3,428.3-193.5,426.1-196.2,426.1z"/>
</svg>
