<?xml version="1.0" encoding="utf-8"?>
<!-- Generator: Adobe Illustrator 19.0.0, SVG Export Plug-In . SVG Version: 6.00 Build 0)  -->
<svg version="1.1" id="Layer_1" xmlns="http://www.w3.org/2000/svg" xmlns:xlink="http://www.w3.org/1999/xlink" x="0px" y="0px"
	 viewBox="-260 357 91 83" style="enable-background:new -260 357 91 83;" xml:space="preserve">
<style type="text/css">
	.st0{fill:url(#SVGID_1_);}
</style>
<linearGradient id="SVGID_1_" gradientUnits="userSpaceOnUse" x1="-214.5" y1="357.009" x2="-214.5" y2="437.009" gradientTransform="matrix(1 0 0 -1 0 796)">
	<stop  offset="0" style="stop-color:#13AC4E"/>
	<stop  offset="1" style="stop-color:#B4D433"/>
</linearGradient>
<path class="st0" d="M-170.9,439h-87.1c-1.1,0-1.9-0.9-1.9-1.9s0.9-1.9,1.9-1.9h87.1c1.1,0,1.9,0.9,1.9,1.9S-169.9,439-170.9,439z
	 M-174.5,430.2c-1.1,0-1.9-0.9-1.9-1.9v-42.6h-48c-1.1,0-1.9-0.9-1.9-1.9s0.9-1.9,1.9-1.9h49.9c1.1,0,1.9,0.9,1.9,1.9v44.5
	C-172.5,429.3-173.4,430.2-174.5,430.2z M-241.4,430.2c-1.1,0-1.9-0.9-1.9-1.9v-31.6c0-1.1,0.9-1.9,1.9-1.9c1.1,0,1.9,0.9,1.9,1.9
	v31.6C-239.5,429.3-240.4,430.2-241.4,430.2z M-182.7,426.4h-7.9c-1.1,0-1.9-0.9-1.9-1.9v-11.2c0-1.1,0.9-1.9,1.9-1.9h7.9
	c1.1,0,1.9,0.9,1.9,1.9v11.2C-180.7,425.5-181.6,426.4-182.7,426.4z M-188.6,422.5h4v-7.4h-4V422.5L-188.6,422.5z M-198.4,426.4
	h-7.9c-1.1,0-1.9-0.9-1.9-1.9v-11.2c0-1.1,0.9-1.9,1.9-1.9h7.9c1.1,0,1.9,0.9,1.9,1.9v11.2C-196.5,425.5-197.3,426.4-198.4,426.4z
	 M-204.3,422.5h4v-7.4h-4V422.5z M-214.1,426.4h-7.9c-1.1,0-1.9-0.9-1.9-1.9v-11.2c0-1.1,0.9-1.9,1.9-1.9h7.9c1.1,0,1.9,0.9,1.9,1.9
	v11.2C-212.2,425.5-213.1,426.4-214.1,426.4z M-220,422.5h4v-7.4h-4V422.5z M-249.9,418.4c-0.6,0-1.2-0.3-1.6-0.9
	c-1.2-1.8-1.9-3.9-2-6.1c-3.9-2.1-6.5-6.2-6.5-10.7c0-4.5,2.6-8.6,6.5-10.7c0.3-6.4,5.6-11.6,12.1-11.6c6.5,0,11.8,5.2,12.1,11.6
	c3.9,2.1,6.5,6.2,6.5,10.7c0,4.5-2.6,8.6-6.5,10.7c-0.1,2.2-0.8,4.3-2,6.1c-0.6,0.9-1.8,1.1-2.7,0.6c-0.9-0.6-1.1-1.8-0.6-2.7
	c0.9-1.3,1.3-2.9,1.3-4.5c0-0.2,0-0.4,0-0.6c-0.1-0.8,0.4-1.6,1.2-1.9c3.1-1.2,5.3-4.3,5.3-7.7c0-3.4-2.1-6.5-5.3-7.7
	c-0.8-0.3-1.3-1.1-1.2-1.9c0-0.2,0-0.4,0-0.6c0-4.6-3.7-8.3-8.3-8.3c-4.6,0-8.3,3.7-8.3,8.3c0,0.2,0,0.4,0,0.6
	c0.1,0.8-0.4,1.6-1.2,1.9c-3.1,1.2-5.3,4.3-5.3,7.7s2.1,6.5,5.3,7.7c0.8,0.3,1.3,1.1,1.2,1.9c0,0.2,0,0.4,0,0.6
	c0,1.6,0.5,3.2,1.3,4.5c0.6,0.9,0.3,2.1-0.6,2.7C-249.2,418.3-249.6,418.4-249.9,418.4z M-182.7,406.2h-7.9c-1.1,0-1.9-0.9-1.9-1.9
	V393c0-1.1,0.9-1.9,1.9-1.9h7.9c1.1,0,1.9,0.9,1.9,1.9v11.2C-180.7,405.3-181.6,406.2-182.7,406.2z M-188.6,402.3h4V395h-4V402.3
	L-188.6,402.3z M-198.4,406.2h-7.9c-1.1,0-1.9-0.9-1.9-1.9V393c0-1.1,0.9-1.9,1.9-1.9h7.9c1.1,0,1.9,0.9,1.9,1.9v11.2
	C-196.5,405.3-197.3,406.2-198.4,406.2z M-204.3,402.3h4V395h-4V402.3z M-214.1,406.2h-3.7c-1.1,0-1.9-0.9-1.9-1.9s0.9-1.9,1.9-1.9
	h1.7V395h-1.7c-1.1,0-1.9-0.9-1.9-1.9c0-1.1,0.9-1.9,1.9-1.9h3.7c1.1,0,1.9,0.9,1.9,1.9v11.2C-212.2,405.3-213.1,406.2-214.1,406.2z
	 M-180.1,378.3c-1.1,0-1.9-0.9-1.9-1.9v-13.5h-27.4v13.5c0,1.1-0.9,1.9-1.9,1.9c-1.1,0-1.9-0.9-1.9-1.9v-15.5c0-1.1,0.9-1.9,1.9-1.9
	h31.3c1.1,0,1.9,0.9,1.9,1.9v15.5C-178.2,377.5-179.1,378.3-180.1,378.3z M-188.1,375.2c-1.1,0-1.9-0.9-1.9-1.9v-3.8
	c0-1.1,0.9-1.9,1.9-1.9c1.1,0,1.9,0.9,1.9,1.9v3.8C-186.2,374.3-187.1,375.2-188.1,375.2z M-195.8,375.2c-1.1,0-1.9-0.9-1.9-1.9
	v-3.8c0-1.1,0.9-1.9,1.9-1.9c1.1,0,1.9,0.9,1.9,1.9v3.8C-193.8,374.3-194.7,375.2-195.8,375.2z M-203.4,375.2
	c-1.1,0-1.9-0.9-1.9-1.9v-3.8c0-1.1,0.9-1.9,1.9-1.9c1.1,0,1.9,0.9,1.9,1.9v3.8C-201.4,374.3-202.3,375.2-203.4,375.2z"/>
</svg>
