<?xml version="1.0" encoding="utf-8"?>
<!-- Generator: Adobe Illustrator 19.0.0, SVG Export Plug-In . SVG Version: 6.00 Build 0)  -->
<svg version="1.1" id="Layer_1" xmlns="http://www.w3.org/2000/svg" xmlns:xlink="http://www.w3.org/1999/xlink" x="0px" y="0px"
	 viewBox="-260 357 91 83" style="enable-background:new -260 357 91 83;" xml:space="preserve">
<style type="text/css">
	.st0{fill:url(#SVGID_1_);}
</style>
<linearGradient id="SVGID_1_" gradientUnits="userSpaceOnUse" x1="-214.5" y1="364.7152" x2="-214.5" y2="430" gradientTransform="matrix(1 0 0 -1 0 796)">
	<stop  offset="0" style="stop-color:#13AC4E"/>
	<stop  offset="1" style="stop-color:#B4D433"/>
</linearGradient>
<path class="st0" d="M-234.6,394.6h-13.2c-1,0-1.9-0.9-1.9-1.9s0.8-1.9,1.9-1.9h13.2c1,0,1.9,0.9,1.9,1.9S-233.6,394.6-234.6,394.6z
	 M-240.2,402.3h7.5c1,0,1.9-0.9,1.9-1.9s-0.8-1.9-1.9-1.9h-7.5c-1,0-1.9,0.9-1.9,1.9S-241.3,402.3-240.2,402.3z M-249.8,400.4
	c0-1.1-0.8-1.9-1.9-1.9h-4.5c-1,0-1.9,0.9-1.9,1.9s0.8,1.9,1.9,1.9h4.5C-250.7,402.3-249.8,401.5-249.8,400.4z M-225,384.9
	c0-1.1-0.8-1.9-1.9-1.9h-31.2c-1,0-1.9,0.9-1.9,1.9s0.8,1.9,1.9,1.9h31.2C-225.9,386.8-225,386-225,384.9z M-169,408.5l0,1.8
	c0,1.1,0,2.4,0,4c0,3.1-2.3,5.7-5.6,6.6c-0.8,5.9-5.8,10.5-11.9,10.5c-6.6,0-12-5.5-12-12.1s5.4-12.1,12-12.1
	c5.8,0,10.7,4.2,11.8,9.8c1.1-0.5,1.9-1.5,1.9-2.6c0-1.6,0-2.8,0-4l0-1.8c0-2.3,0-5.4,0-6.8c0-0.5,0-0.9,0-1.3h-46.5
	c-5.1,0-7-4.6-7.6-6.1c-0.4-1,0.1-2.1,1-2.5c1-0.4,2.1,0.1,2.5,1c1.1,2.6,2.3,3.8,4.1,3.8h45.9c-0.8-1.9-2.5-3.4-6.2-6.7
	c-0.7-0.7-1.6-1.4-2.5-2.2c-0.7-0.6-1.3-1.2-1.9-1.8c-0.9-0.9-1.9-1.8-2.9-2.7c-0.9-0.7-1.7-1.5-2.5-2.1
	c-10.1-8.5-13.1-11.1-21.9-11.1h-34.7c-2.2,0-4,1.4-4,3v4.5c0,1.1-0.8,1.9-1.9,1.9c-1,0-1.9-0.9-1.9-1.9v-4.5c0-3.8,3.5-6.8,7.8-6.8
	h34.7c10.2,0,14.1,3.3,24.4,12c0.8,0.7,1.6,1.4,2.5,2.1c1.1,0.9,2.1,1.9,3.1,2.9c0.6,0.6,1.2,1.2,1.9,1.7c0.9,0.8,1.7,1.5,2.5,2.2
	c6.5,5.8,8,7.2,8.2,14.6C-169,403.1-169,406.1-169,408.5z M-178.3,419.2C-178.3,419.1-178.3,419.1-178.3,419.2
	c0-4.7-3.7-8.4-8.3-8.4c-4.6,0-8.3,3.7-8.3,8.3c0,4.6,3.7,8.3,8.3,8.3C-182,427.5-178.3,423.7-178.3,419.2z M-236.4,417.2
	L-236.4,417.2c-1,0-1.9,0.9-1.9,1.9s0.8,1.9,1.9,1.9c1,0,1.9-0.9,1.9-1.9S-235.4,417.2-236.4,417.2z M-186.5,417.2L-186.5,417.2
	c-1,0-1.9,0.9-1.9,1.9s0.8,1.9,1.9,1.9c1,0,1.9-0.9,1.9-1.9S-185.5,417.2-186.5,417.2z M-202.5,419.1c0,1.1-0.8,1.9-1.9,1.9h-20.2
	c-0.9,5.8-5.9,10.2-11.9,10.2c-6.1,0-11.1-4.6-11.9-10.5c-2.2-0.6-4-1.9-5-3.8c-0.4-0.9-0.6-1.8-0.6-2.7v-5.6c0-1.1,0.8-1.9,1.9-1.9
	c1,0,1.9,0.9,1.9,1.9v5.6c0,0.4,0.1,0.7,0.2,1c0.3,0.7,0.9,1.2,1.7,1.6c1.1-5.6,6-9.8,11.8-9.8c6,0,11,4.4,11.9,10.2h20.2
	C-203.4,417.2-202.5,418.1-202.5,419.1z M-228.2,419.1c0-4.6-3.7-8.3-8.3-8.3c-4.5,0-8.2,3.7-8.3,8.3c0,0,0,0,0,0
	c0,4.6,3.7,8.3,8.3,8.3C-231.9,427.5-228.2,423.7-228.2,419.1z"/>
</svg>
