<?xml version="1.0" encoding="utf-8"?>
<!-- Generator: Adobe Illustrator 19.0.0, SVG Export Plug-In . SVG Version: 6.00 Build 0)  -->
<svg version="1.1" id="Layer_1" xmlns="http://www.w3.org/2000/svg" xmlns:xlink="http://www.w3.org/1999/xlink" x="0px" y="0px"
	 viewBox="-260 357 91 83" style="enable-background:new -260 357 91 83;" xml:space="preserve">
<style type="text/css">
	.st0{fill:url(#SVGID_1_);}
</style>
<linearGradient id="SVGID_1_" gradientUnits="userSpaceOnUse" x1="-214.5118" y1="356.009" x2="-214.5118" y2="437.9854" gradientTransform="matrix(1 0 0 -1 0 796)">
	<stop  offset="0" style="stop-color:#13AC4E"/>
	<stop  offset="1" style="stop-color:#B4D433"/>
</linearGradient>
<path class="st0" d="M-175.9,379.5l-22.1,55.1c-1.1,2.6-4,3.9-6.6,3c-1.5,2.1-4.2,3-6.7,2l-38.7-15.7c-2.9-1.2-4.2-4.4-3.1-7.3
	l22.1-55.1c1.1-2.8,4.2-4.2,7-3.2c9.1,2.5,20.9,6.4,31.4,9.9c5,1.7,9.8,3.2,13.8,4.5c0,0,0,0,0.1,0
	C-176.1,373.8-174.8,376.9-175.9,379.5z M-224.6,360.6c-1.7-0.7-3.5,0.1-4.2,1.8l-22.1,55.1c-0.7,1.7,0.1,3.6,1.8,4.2l38.7,15.7
	c1.7,0.7,3.5-0.1,4.2-1.8l0,0l22.1-55.1c0.7-1.7-0.1-3.6-1.8-4.2L-224.6,360.6z M-179.3,374.2c-4.1-1.3-8.8-2.9-13.8-4.5
	c-4.5-1.5-9.3-3.1-14-4.6l22.1,8.9c2.9,1.2,4.2,4.4,3.1,7.3l-22,54.7c1.8,0.5,3.7-0.4,4.4-2.1l22.1-55.1
	C-176.6,377.1-177.5,375-179.3,374.2z M-204.5,403.6c0,0-0.1,0.1-0.1,0.1c-4.2,3.9-10.4,5.3-16,3c-5.6-2.3-9.1-7.6-9.4-13.3
	c0-0.1,0-0.1,0-0.2c-0.1-2.1,0.3-4.2,1.1-6.3c0.1-0.2,0.2-0.4,0.3-0.6c0,0,0,0,0,0c1-2.2,2.4-4,4.1-5.4c0,0,0.1-0.1,0.1-0.1
	c4.1-3.4,9.9-4.4,15.1-2.3c5.2,2.1,8.7,6.9,9.3,12.2c0,0.1,0,0.1,0,0.2c0.3,2.4,0,5-1,7.4C-201.8,400.3-203,402.1-204.5,403.6z
	 M-202.4,397.8l-4.3-1.7c-0.6,1.5-1.4,3-2.3,4.5l3.8,1.5C-204.1,400.9-203.1,399.5-202.4,397.8z M-215.7,392.4l-6.1-2.5
	c-0.6,1.5-1.1,3.2-1.4,4.9l5.6,2.3l0,0L-215.7,392.4z M-216.1,397.7l5.6,2.3c0.9-1.5,1.7-3,2.4-4.5l-6.1-2.5L-216.1,397.7z
	 M-215.1,391L-215.1,391l1.8-4.4l-5.5-2.2c-0.9,1.4-1.7,2.7-2.3,4.2L-215.1,391z M-213.7,391.6l6,2.4c0.5-1.5,0.9-3,1.2-4.6
	l-5.5-2.2L-213.7,391.6z M-206.6,403.3l-3.4-1.4c-1,1.4-2,2.8-3.3,4.2C-210.8,405.8-208.5,404.8-206.6,403.3z M-215.4,406.2
	c0-0.1,0.1-0.1,0.1-0.2c1.5-1.6,2.7-3.2,3.8-4.7l-5.3-2.1l-2.5,6.3C-218,405.9-216.7,406.2-215.4,406.2z M-220.7,404.9L-220.7,404.9
	l2.5-6.3l-5.3-2.1c-0.3,1.9-0.4,3.9-0.5,6.1c0,0.1,0,0.1,0,0.2C-223,403.6-221.9,404.3-220.7,404.9z M-225.5,401.1
	c0.1-1.9,0.3-3.6,0.5-5.3l-3.4-1.4C-228,396.9-227,399.2-225.5,401.1z M-228.5,392.7l3.8,1.5c0.4-1.7,0.8-3.3,1.4-4.9l-4.3-1.7
	C-228.2,389.3-228.5,391-228.5,392.7z M-226.9,386.2l4.3,1.7c0.6-1.4,1.4-2.8,2.3-4.2l-3.5-1.4C-225,383.4-226.1,384.7-226.9,386.2z
	 M-222.4,381.2l3,1.2c0.8-1.1,1.7-2.2,2.7-3.4C-218.7,379.3-220.7,380.1-222.4,381.2z M-214.4,378.9c0,0.1-0.1,0.1-0.1,0.2
	c-1.2,1.3-2.4,2.6-3.3,3.9l5.1,2.1l0,0l2.2-5.5C-211.9,379.2-213.2,379-214.4,378.9z M-209.1,380.2L-209.1,380.2l-2.2,5.5l5.1,2.1
	c0.2-1.6,0.3-3.3,0.3-5.1c0-0.1,0-0.1,0-0.2C-206.8,381.5-207.9,380.8-209.1,380.2z M-204.4,384c0,1.5-0.2,3-0.4,4.3l3,1.2
	C-202.2,387.6-203.1,385.7-204.4,384z M-201.4,391.4l-3.5-1.4c-0.3,1.6-0.7,3.1-1.2,4.6l4.3,1.7C-201.5,394.7-201.3,393-201.4,391.4
	z M-207.4,423.8c-0.2,0.6-0.9,0.9-1.5,0.7l-32.4-13.1c-0.6-0.2-0.9-0.9-0.7-1.5s0.9-0.9,1.5-0.7l32.4,13.1
	C-207.4,422.5-207.1,423.2-207.4,423.8z"/>
</svg>
